<?xml version="1.0" encoding="UTF-8"?>
<svg id="Layer_2" data-name="Layer 2" xmlns="http://www.w3.org/2000/svg" viewBox="0 0 320 320">
  <defs>
    <style>
      .cls-1 {
        fill: #f5edd1;
      }
    </style>
  </defs>
  <path class="cls-1" d="M240.63,178.17c8.34-13.39,13.64-29.68,15.62-43.63,1.68-11.8,2.16-22.21.82-33.59-1.09-9.25-3.3-16.65-8.81-26.14-3.57-6.15-11.31-13.82-20.17-17.77-7.19-3.2-20.11-7.28-37.01-4.01-9.65,1.87-24.85,8.16-33.87,14.33-13.34,9.12-21.62,15.24-34.45,31.24-9.49,11.84-15.21,25.9-17.82,39.22-5.15,26.23,2.36,51.68,17.1,68.18,3.48,3.9,3.02,20.15,4.12,21.06.05.04.15.1.35.11,2.61.14,15.58-7.51,18.71-6.84,27.26,5.9,44.07.44,60.48-8.12,13.71-7.16,25.72-19.23,34.94-34.04Z"/>
  <path class="cls-1" d="M258.88,48.18c2.87-.76,5.85,1.14,6.67,4.23.82,3.09-.84,6.22-3.71,6.97-.46.12-.93.18-1.39.17"/>
  <path class="cls-1" d="M222.36,31.25c-1.23-2.7-4.59-3.8-7.5-2.47s-4.27,4.59-3.04,7.29c.2.43.45.83.75,1.18"/>
  <path class="cls-1" d="M206.31,45.5s18.31-21.11,38.65-10.6c19.68,10.17,10.95,36.78,10.95,36.78l-.67-.72c-13.29-13.12-29.59-21.73-47.92-25.29l-1.01-.17Z"/>
  <path class="cls-1" d="M255.4,74.94l4.01-1.53s50.09,96.21-103.61,232.26c-.05.04-.24-.26-.29-.22,0,0,143.01-123.69,99.89-230.5Z"/>
  <path class="cls-1" d="M204.16,46.93l-.12-4.29s-115.09-5.26-152.55,219.92c0,0-.04-.02.12.01,0,0,37.37-214.5,152.55-215.65Z"/>
  <polygon class="cls-1" points="248.45 92.09 250.02 99.35 271.6 84.23 276.19 32.73 275.13 32.83 266.7 81.82 248.45 92.09"/>
  <polygon class="cls-1" points="249.73 122.82 248.97 133.13 287.77 109.46 312.63 205.86 314.26 205.58 290.45 103.62 249.73 122.82"/>
  <polygon class="cls-1" points="225.21 181.36 218.93 193.48 268.15 186.71 237.52 305.13 238.98 305.36 273.59 181.36 225.21 181.36"/>
  <polygon class="cls-1" points="185.07 61.92 177.96 64.05 180.75 37.85 223.62 8.93 224.04 9.91 185.24 40.98 185.07 61.92"/>
  <polygon class="cls-1" points="155.14 79.18 146.48 84.84 148.43 39.43 52.03 64.29 51.49 62.72 152.25 34.26 155.14 79.18"/>
  <polygon class="cls-1" points="113.42 132.21 107.16 144.34 84.24 100.26 5.3 193.69 4.27 192.64 85.46 92.73 113.42 132.21"/>
</svg>