<?xml version="1.0" encoding="UTF-8"?>
<svg id="Layer_2" data-name="Layer 2" xmlns="http://www.w3.org/2000/svg" viewBox="0 0 400 400">
  <defs>
    <style>
      .cls-1 {
        fill: #1e2a18;
      }
    </style>
  </defs>
  <path class="cls-1" d="M262.45,230.4c8.34-13.39,13.64-29.68,15.62-43.63,1.68-11.8,2.16-22.21.82-33.59-1.09-9.25-3.3-16.65-8.81-26.14-3.57-6.15-11.31-13.82-20.17-17.77-7.19-3.2-20.11-7.28-37.01-4.01-9.65,1.87-24.85,8.16-33.87,14.33-13.34,9.12-21.62,15.24-34.45,31.24-9.49,11.84-15.21,25.9-17.82,39.22-5.15,26.23,2.36,51.68,17.1,68.18,3.48,3.9,3.02,20.15,4.12,21.06.05.04.15.1.35.11,2.61.14,15.58-7.51,18.71-6.84,27.26,5.9,44.07.44,60.48-8.12,13.71-7.16,25.72-19.23,34.94-34.04Z"/>
  <path class="cls-1" d="M280.69,100.41c2.87-.76,5.85,1.14,6.67,4.23.82,3.09-.84,6.22-3.71,6.97-.46.12-.93.18-1.39.17"/>
  <path class="cls-1" d="M244.17,83.48c-1.23-2.7-4.59-3.8-7.5-2.47s-4.27,4.59-3.04,7.29c.2.43.45.83.75,1.18"/>
  <path class="cls-1" d="M228.13,97.73s18.31-21.11,38.65-10.6c19.68,10.17,10.95,36.78,10.95,36.78l-.67-.72c-13.29-13.12-29.59-21.73-47.92-25.29l-1.01-.17Z"/>
  <path class="cls-1" d="M277.22,127.17l4.01-1.53s50.09,96.21-103.61,232.26c-.05.04-.24-.26-.29-.22,0,0,143.01-123.69,99.89-230.5Z"/>
  <path class="cls-1" d="M225.98,99.16l-.12-4.29s-115.09-5.26-152.55,219.92c0,0-.04-.02.12.01,0,0,37.37-214.5,152.55-215.65Z"/>
  <polygon class="cls-1" points="270.26 144.32 271.83 151.58 293.41 136.47 298.01 84.96 296.95 85.06 288.51 134.05 270.26 144.32"/>
  <polygon class="cls-1" points="271.54 175.05 270.78 185.36 309.59 161.7 334.44 258.09 336.07 257.81 312.26 155.86 271.54 175.05"/>
  <polygon class="cls-1" points="247.02 233.6 240.74 245.71 289.96 238.95 259.34 357.36 260.79 357.6 295.4 233.6 247.02 233.6"/>
  <polygon class="cls-1" points="206.89 114.15 199.77 116.29 202.56 90.09 245.43 61.16 245.85 62.14 207.05 93.21 206.89 114.15"/>
  <polygon class="cls-1" points="176.95 131.42 168.29 137.07 170.24 91.66 73.85 116.52 73.3 114.95 174.06 86.49 176.95 131.42"/>
  <polygon class="cls-1" points="135.24 184.45 128.98 196.57 106.05 152.5 27.11 245.92 26.08 244.87 107.28 144.96 135.24 184.45"/>
</svg>