<?xml version="1.0" encoding="UTF-8"?>
<svg id="Layer_2" data-name="Layer 2" xmlns="http://www.w3.org/2000/svg" viewBox="0 0 130 130">
  <defs>
    <style>
      .cls-1 {
        fill: #1e2a18;
      }
    </style>
  </defs>
  <path class="cls-1" d="M58.45,188.98c9.8-12.36,16.89-27.95,20.43-41.6,2.99-11.54,4.65-21.83,4.6-33.29-.04-9.31-1.41-16.92-5.81-26.96-2.86-6.51-9.68-15.01-18.04-19.93-6.78-3.99-19.17-9.5-36.32-8.15-9.8.77-25.61,5.31-35.27,10.42-14.29,7.56-23.2,12.7-37.75,27.16-10.77,10.69-18.03,24.02-22.12,36.96-8.07,25.48-3.47,51.61,9.31,69.67,3.02,4.26.73,20.36,1.72,21.39.04.04.14.12.33.15,2.57.44,16.33-5.71,19.36-4.68,26.42,8.93,43.74,5.41,61.01-1.26,14.43-5.57,27.72-16.21,38.56-29.88Z"/>
  <path class="cls-1" d="M91.23,61.87c2.93-.43,5.69,1.79,6.15,4.95s-1.54,6.08-4.47,6.51c-.47.07-.94.07-1.4,0"/>
  <path class="cls-1" d="M56.84,40.93c-.92-2.82-4.13-4.29-7.17-3.3s-4.76,4.08-3.84,6.9c.15.45.36.87.61,1.25"/>
  <path class="cls-1" d="M39.3,53.29s20.57-18.92,39.6-6.18c18.41,12.33,6.73,37.78,6.73,37.78l-.59-.79c-11.73-14.53-26.95-24.92-44.76-30.53l-.98-.28Z"/>
  <path class="cls-1" d="M84.76,88.07l4.16-1.07s38.93,101.24-129.11,219.11c-.05.04-.21-.29-.26-.25,0,0,156.04-106.79,125.22-217.78Z"/>
  <path class="cls-1" d="M37,54.47l.36-4.28s-113.77-18.19-176.35,201.34c0,0-.04-.02.12.03,0,0,61.29-208.93,175.87-197.09Z"/>
  <polygon class="cls-1" points="75.91 104.33 76.66 111.72 99.8 99.13 110.17 48.47 109.1 48.45 95.2 96.18 75.91 104.33"/>
  <polygon class="cls-1" points="73.73 135.01 71.81 145.17 113.03 126.02 126.87 224.61 128.52 224.51 116.35 120.52 73.73 135.01"/>
  <polygon class="cls-1" points="16.34 67.21 9.03 68.53 14.76 42.81 60.61 18.9 60.92 19.92 18.86 46.43 16.34 67.21"/>
</svg>