<?xml version="1.0" encoding="UTF-8"?>
<svg id="Layer_2" data-name="Layer 2" xmlns="http://www.w3.org/2000/svg" viewBox="0 0 400 400">
  <defs>
    <style>
      .cls-1 {
        fill: #f5edd1;
      }
    </style>
  </defs>
  <path class="cls-1" d="M270.78,227.85c8.34-13.39,13.64-29.68,15.62-43.63,1.68-11.8,2.16-22.21.82-33.59-1.09-9.25-3.3-16.65-8.81-26.14-3.57-6.15-11.31-13.82-20.17-17.77-7.19-3.2-20.11-7.28-37.01-4.01-9.65,1.87-24.85,8.16-33.87,14.33-13.34,9.12-21.62,15.24-34.45,31.24-9.49,11.84-15.21,25.9-17.82,39.22-5.15,26.23,2.36,51.68,17.1,68.18,3.48,3.9,3.02,20.15,4.12,21.06.05.04.15.1.35.11,2.61.14,15.58-7.51,18.71-6.84,27.26,5.9,44.07.44,60.48-8.12,13.71-7.16,25.72-19.23,34.94-34.04Z"/>
  <path class="cls-1" d="M289.03,97.86c2.87-.76,5.85,1.14,6.67,4.23.82,3.09-.84,6.22-3.71,6.97-.46.12-.93.18-1.39.17"/>
  <path class="cls-1" d="M252.5,80.92c-1.23-2.7-4.59-3.8-7.5-2.47s-4.27,4.59-3.04,7.29c.2.43.45.83.75,1.18"/>
  <path class="cls-1" d="M236.46,95.18s18.31-21.11,38.65-10.6c19.68,10.17,10.95,36.78,10.95,36.78l-.67-.72c-13.29-13.12-29.59-21.73-47.92-25.29l-1.01-.17Z"/>
  <path class="cls-1" d="M285.55,124.62l4.01-1.53s50.09,96.21-103.61,232.26c-.05.04-.24-.26-.29-.22,0,0,143.01-123.69,99.89-230.5Z"/>
  <path class="cls-1" d="M234.31,96.61l-.12-4.29s-115.09-5.26-152.55,219.92c0,0-.04-.02.12.01,0,0,37.37-214.5,152.55-215.65Z"/>
  <polygon class="cls-1" points="278.59 141.77 280.16 149.03 301.75 133.91 306.34 82.4 305.28 82.51 296.84 131.5 278.59 141.77"/>
  <polygon class="cls-1" points="279.88 172.49 279.12 182.81 317.92 159.14 342.77 255.54 344.41 255.26 320.6 153.3 279.88 172.49"/>
  <polygon class="cls-1" points="255.35 231.04 249.08 243.15 298.3 236.39 267.67 354.8 269.12 355.04 303.74 231.04 255.35 231.04"/>
  <polygon class="cls-1" points="215.22 111.59 208.11 113.73 210.9 87.53 253.76 58.6 254.18 59.58 215.38 90.66 215.22 111.59"/>
  <polygon class="cls-1" points="185.28 128.86 176.62 134.51 178.58 89.1 82.18 113.96 81.64 112.4 182.4 83.94 185.28 128.86"/>
  <polygon class="cls-1" points="143.57 181.89 137.31 194.01 114.39 149.94 35.45 243.36 34.42 242.32 115.61 142.41 143.57 181.89"/>
</svg>